REM MD5 e99585893d415ed4b8b6ab784dcc7c8b
FILE "Treasures of the Deep (USA).bin" BINARY
  TRACK 01 MODE2/2352
    INDEX 01 00:00:00
  TRACK 02 AUDIO
    INDEX 00 42:39:65
    INDEX 01 42:41:65
  TRACK 03 AUDIO
    INDEX 00 45:11:45
    INDEX 01 45:13:45
REM LEADOUT 47:53:65
